<svg width="24" height="24" viewBox="0 0 24 24" fill="none" xmlns="http://www.w3.org/2000/svg">
<rect width="24" height="24" rx="12" fill="black" fill-opacity="0.32"/>
<path d="M13.0575 12L17.3025 7.75496C17.381 7.68773 17.4447 7.60499 17.4898 7.51194C17.5348 7.41889 17.5601 7.31754 17.5641 7.21425C17.5681 7.11096 17.5507 7.00796 17.5129 6.91172C17.4752 6.81547 17.418 6.72806 17.345 6.65497C17.2719 6.58188 17.1845 6.52469 17.0882 6.48698C16.992 6.44928 16.889 6.43187 16.7857 6.43586C16.6824 6.43985 16.581 6.46515 16.488 6.51017C16.3949 6.55518 16.3122 6.61895 16.245 6.69746L12 10.9425L7.75497 6.69746C7.61149 6.57459 7.42693 6.51039 7.23818 6.51768C7.04942 6.52497 6.87036 6.60322 6.73679 6.73679C6.60322 6.87036 6.52497 7.04941 6.51768 7.23817C6.51039 7.42693 6.5746 7.61148 6.69747 7.75496L10.9425 12L6.69747 16.245C6.55778 16.3855 6.47937 16.5756 6.47937 16.7737C6.47937 16.9718 6.55778 17.1619 6.69747 17.3025C6.83799 17.4421 7.02808 17.5206 7.22622 17.5206C7.42435 17.5206 7.61444 17.4421 7.75497 17.3025L12 13.0575L16.245 17.3025C16.3855 17.4421 16.5756 17.5206 16.7737 17.5206C16.9719 17.5206 17.1619 17.4421 17.3025 17.3025C17.4422 17.1619 17.5206 16.9718 17.5206 16.7737C17.5206 16.5756 17.4422 16.3855 17.3025 16.245L13.0575 12Z" fill="white"/>
</svg>
