<svg width="31" height="34" viewBox="0 0 31 34" fill="none" xmlns="http://www.w3.org/2000/svg">
<path d="M29.25 27.25C28.9185 27.25 28.6005 27.3817 28.3661 27.6161C28.1317 27.8505 28 28.1685 28 28.5C27.9983 28.9384 27.8812 29.3686 27.6607 29.7476C27.4402 30.1265 27.1239 30.4407 26.7436 30.6588C26.3632 30.8769 25.9322 30.9911 25.4938 30.99C25.0554 30.9889 24.625 30.8726 24.2457 30.6526C23.8665 30.4326 23.5517 30.1168 23.3331 29.7368C23.1145 29.3568 22.9996 28.926 23 28.4876C23.0005 28.0491 23.1162 27.6185 23.3356 27.239C23.555 26.8594 23.8703 26.5442 24.25 26.325C24.2149 26.5816 24.2604 26.8428 24.3803 27.0725C24.5001 27.3022 24.6883 27.4889 24.9189 27.607C25.1495 27.725 25.411 27.7685 25.6674 27.7314C25.9238 27.6943 26.1623 27.5785 26.35 27.4L28.1125 25.6375C28.2297 25.5213 28.3226 25.383 28.3861 25.2307C28.4496 25.0784 28.4822 24.915 28.4822 24.75C28.4822 24.585 28.4496 24.4216 28.3861 24.2693C28.3226 24.1169 28.2297 23.9787 28.1125 23.8625L26.35 22.1C26.2338 21.9828 26.0955 21.8898 25.9432 21.8264C25.7909 21.7629 25.6275 21.7302 25.4625 21.7302C25.2975 21.7302 25.1341 21.7629 24.9818 21.8264C24.8294 21.8898 24.6912 21.9828 24.575 22.1C24.3853 22.2991 24.2666 22.5552 24.2372 22.8287C24.2078 23.1021 24.2694 23.3776 24.4125 23.6125C23.4931 23.8174 22.6502 24.2778 21.9811 24.9407C21.3119 25.6037 20.8436 26.4422 20.6301 27.3596C20.4166 28.2771 20.4666 29.2362 20.7744 30.1264C21.0822 31.0167 21.6352 31.8019 22.3697 32.3916C23.1042 32.9814 23.9904 33.3516 24.9261 33.4597C25.8619 33.5678 26.8091 33.4094 27.6588 33.0027C28.5084 32.596 29.2259 31.9576 29.7286 31.161C30.2312 30.3644 30.4986 29.4419 30.5 28.5C30.5 28.1685 30.3683 27.8505 30.1339 27.6161C29.8995 27.3817 29.5815 27.25 29.25 27.25Z" fill="#7F3DFF"/>
<path d="M23.725 2.91247C23.1809 2.57642 22.56 2.38508 21.9211 2.35664C21.2823 2.32819 20.6468 2.46359 20.075 2.74997L19.7 2.93747C19.5389 3.00991 19.3642 3.04736 19.1875 3.04736C19.0108 3.04736 18.8361 3.00991 18.675 2.93747L14.3875 1.26247C13.4965 0.907628 12.5035 0.907628 11.6125 1.26247L7.325 2.97497C7.16385 3.04741 6.98918 3.08486 6.8125 3.08486C6.63582 3.08486 6.46115 3.04741 6.3 2.97497L5.925 2.78747C5.35649 2.5036 4.72517 2.36885 4.0903 2.39587C3.45544 2.42289 2.83785 2.61079 2.29551 2.94194C1.75318 3.27309 1.30389 3.73662 0.98982 4.28902C0.67575 4.84142 0.507203 5.46457 0.5 6.09997V24.75C0.5 26.4076 1.15848 27.9973 2.33058 29.1694C3.50269 30.3415 5.0924 31 6.75 31H18.475C18.17 30.2013 18.0092 29.3548 18 28.5V28.4C18.002 27.0538 18.3664 25.7329 19.0548 24.576C19.7432 23.4192 20.7303 22.4689 21.9125 21.825C22.0861 21.2216 22.4085 20.6714 22.85 20.225L23 20.0875C23.2367 19.879 23.4968 19.6986 23.775 19.55C24.234 19.3168 24.7361 19.1806 25.25 19.15H25.5V6.09997C25.5 5.4615 25.3369 4.83362 25.0263 4.27581C24.7156 3.71799 24.2677 3.24873 23.725 2.91247V2.91247ZM15.5 22.25H8C7.66848 22.25 7.35054 22.1183 7.11612 21.8839C6.8817 21.6494 6.75 21.3315 6.75 21C6.75 20.6684 6.8817 20.3505 7.11612 20.1161C7.35054 19.8817 7.66848 19.75 8 19.75H15.5C15.8315 19.75 16.1495 19.8817 16.3839 20.1161C16.6183 20.3505 16.75 20.6684 16.75 21C16.75 21.3315 16.6183 21.6494 16.3839 21.8839C16.1495 22.1183 15.8315 22.25 15.5 22.25ZM18 14.75H8C7.66848 14.75 7.35054 14.6183 7.11612 14.3839C6.8817 14.1494 6.75 13.8315 6.75 13.5C6.75 13.1684 6.8817 12.8505 7.11612 12.6161C7.35054 12.3817 7.66848 12.25 8 12.25H18C18.3315 12.25 18.6495 12.3817 18.8839 12.6161C19.1183 12.8505 19.25 13.1684 19.25 13.5C19.25 13.8315 19.1183 14.1494 18.8839 14.3839C18.6495 14.6183 18.3315 14.75 18 14.75Z" fill="#7F3DFF"/>
</svg>
